<svg width="985" height="1212" viewBox="0 0 985 1212" fill="none" xmlns="http://www.w3.org/2000/svg">
<g clip-path="url(#clip0_79430_1190)">
<path d="M51.1969 749.61L59.5598 694.291C71.6273 616.032 97.7934 558.682 137.341 523.555C176.769 488.428 217.274 470.746 257.658 470.746C277.969 470.746 291.35 473.851 297.444 479.945C303.537 486.038 306.644 496.553 306.644 511.368V1207.58H431.5V511.368C431.5 496.672 434.606 486.038 440.7 479.945C446.793 473.851 460.176 470.746 480.487 470.746C521.947 470.746 563.047 488.548 602.475 523.555C641.904 558.682 667.592 616.032 678.584 694.291L686.947 749.61C689.336 765.501 698.537 773.865 713.353 773.865C722.075 773.865 728.527 771.475 732.828 766.696C737.607 761.319 739.399 753.075 738.084 742.322L723.03 439.083C720.64 411.722 709.528 397.863 689.934 397.863C682.765 397.863 674.88 400.253 666.875 404.912C660.423 408.138 648.714 412.081 632.226 416.382C616.932 420.803 591.244 422.954 555.998 422.954H182.505C147.139 422.954 120.973 420.683 104.604 416.382C89.191 411.961 78.0796 408.138 71.9862 405.032C64.8174 400.253 56.9322 397.863 48.5687 397.863C28.974 397.863 17.8622 411.722 15.4726 439.203L0.418079 742.203C-0.896195 753.195 0.896755 761.439 5.67593 766.815C9.9772 771.594 16.5472 773.984 25.1497 773.984C39.9651 773.984 49.0466 765.621 51.5556 749.73L51.1969 749.61Z" fill="#172020"/>
<path d="M932.366 291.65C897.717 200.009 847.774 127.963 784.092 77.6617C720.17 26.0465 643.465 9.04853e-06 556.125 9.04853e-06H217.76C194.461 9.04853e-06 189.681 11.5893 189.681 21.3866C189.681 32.9761 197.806 40.7429 213.936 44.4468L252.408 51.1376C275.109 55.4388 289.686 61.293 296.138 68.7007C303.307 75.8695 307.011 90.9239 307.011 113.506V336.693H431.866V168.705C431.866 88.4148 472.49 49.4647 556.125 49.4647C651.589 49.4647 724.472 99.0483 772.861 196.902C822.684 294.278 847.895 433.591 847.895 610.899C847.895 788.206 821.489 927.519 769.516 1021.55C718.976 1114.98 643.704 1162.42 545.97 1162.42C505.586 1162.42 475.955 1153.69 457.674 1136.61C440.469 1118.33 431.747 1086.79 431.747 1043.18V462.625H306.891V1098.49C306.891 1133.98 289.088 1154.41 252.408 1160.86L213.697 1167.55C197.686 1171.26 189.562 1179.02 189.562 1190.61C189.562 1200.41 194.461 1212 217.64 1212H539.278C629.963 1212 709.417 1187.03 775.609 1137.68C841.681 1088.46 893.176 1018.08 929.02 928.714C965.82 839.463 984.459 732.529 984.459 611.018C984.459 489.508 966.896 383.171 932.366 291.769V291.65Z" fill="#172020"/>
</g>
<defs>
<clipPath id="clip0_79430_1190">
<rect width="984.2" height="1212" fill="white"/>
</clipPath>
</defs>
</svg>
