<svg width="2273" height="491" viewBox="0 0 2273 491" fill="none" xmlns="http://www.w3.org/2000/svg">
<g clip-path="url(#clip0_79424_401)">
<path d="M856.211 370.773L844.736 369.223C837.726 368.227 833.003 366.419 830.826 363.91C828.87 360.958 827.874 355.867 827.874 348.819V179.833C827.874 158.543 823.078 142.272 813.632 131.387C804.482 120.097 792.343 114.415 777.547 114.415C766.7 114.415 755.926 116.887 745.411 121.794C734.969 126.665 722.497 135.815 708.255 149.024C706.042 151.238 703.681 152.16 701.356 151.902C699.216 151.275 697.703 149.799 696.781 147.253C692.907 136.332 686.855 128.14 678.738 122.864C670.99 117.219 661.914 114.378 651.656 114.378C640.809 114.378 629.85 116.85 619.003 121.757C608.524 126.628 596.053 135.963 581.847 149.504C579.707 151.644 577.826 152.234 576.239 151.459C574.431 150.242 573.546 148.655 573.546 146.515V123.123C573.546 117.182 570.52 115.965 567.937 115.965C565.576 115.965 562.809 117.588 559.525 120.872C553.326 126.37 547.238 131.055 541.409 134.856C535.985 138.582 527.905 141.313 517.352 143.01C511.338 144.117 508.276 146.367 508.276 149.651C508.276 152.419 509.604 155.813 515.84 156.293L526.761 157.842C531.336 158.506 534.436 159.945 536.096 162.27C537.978 164.152 538.937 168.137 538.937 174.114V348.819C538.937 355.867 537.793 360.922 535.505 363.873C533.586 366.419 529.048 368.449 522.038 369.74L515.729 370.773C510.748 371.917 508.239 374.352 508.239 377.931C508.239 380.956 509.752 384.572 516.947 384.572H604.834C612.029 384.572 613.542 380.661 613.542 377.414C613.542 374.942 612.435 371.732 607.011 370.773L592.953 369.223C585.98 368.559 581.294 366.751 579.08 363.91C577.125 360.958 576.128 355.867 576.128 348.819V209.461C576.128 196.842 578.711 185.257 583.84 175.036C588.969 164.447 595.684 155.997 603.838 149.873C612.287 143.453 621.733 140.206 631.879 140.206C642.026 140.206 649.959 143.563 655.604 150.278C661.655 156.994 664.717 168.874 664.717 185.552V348.856C664.717 355.904 663.574 360.958 661.212 363.947C659.294 366.825 654.793 368.78 647.819 369.777L640.514 370.81C635.164 371.769 634.02 375.237 634.02 377.968C634.02 380.993 635.422 384.609 642.211 384.609H730.615C736.555 384.609 737.773 380.993 737.773 377.968C737.773 375.274 736.666 371.769 731.242 370.81L719.804 369.26C712.425 368.264 707.554 366.456 705.34 363.873C703.053 360.958 701.909 355.867 701.909 348.856V209.498C701.909 196.879 704.492 185.294 709.621 175.073C714.75 164.484 721.465 156.034 729.619 149.91C738.068 143.49 747.514 140.243 757.66 140.243C767.807 140.243 775.74 143.6 781.385 150.315C787.436 157.031 790.498 168.911 790.498 185.589V348.893C790.498 355.94 789.355 360.995 787.067 363.91C784.816 366.788 779.761 368.817 772.087 369.814L764.781 370.847C759.431 371.806 758.287 375.274 758.287 378.005C758.287 381.03 759.689 384.646 766.478 384.646H855.4C861.34 384.646 862.557 381.03 862.557 378.005C862.557 375.311 861.45 371.806 856.064 370.847L856.174 370.773H856.211Z" fill="#172020"/>
<path d="M494.764 370.885L482.847 369.335C475.873 368.339 471.187 366.531 469.01 364.059C467.055 361.107 466.059 356.089 466.059 349.042V9.18724C466.059 1.58653 462.479 6.93895e-06 459.454 6.93895e-06C456.428 6.93895e-06 452.259 1.73416 446.54 5.31313C442.112 8.04349 436.43 10.7737 429.604 13.5041C422.778 16.2344 414.477 18.6697 404.957 20.699C399.644 21.6583 398.501 25.0896 398.501 27.82C398.501 30.5504 399.608 33.9817 404.994 34.941L416.949 36.4908C421.487 36.8229 424.55 38.0773 426.136 40.2911C428.055 42.5049 429.014 46.6743 429.014 52.6147V349.005C429.014 355.942 427.39 360.923 424.144 363.838C420.86 366.79 415.621 368.819 408.61 369.815L401.342 370.848C396.029 371.808 394.885 375.239 394.885 377.969C394.885 380.995 396.139 384.574 402.006 384.574H494.063C499.966 384.574 501.184 380.995 501.184 377.969C501.184 375.276 500.077 371.808 494.727 370.848L494.764 370.885Z" fill="#172020"/>
<path d="M227.929 108.995L223.28 15.3511C222.542 6.90181 219.111 2.62198 213.06 2.62198C210.846 2.62198 208.411 3.35979 205.939 4.79876C203.946 5.79497 200.33 7.01264 195.238 8.34092C190.515 9.70609 182.583 10.3702 171.699 10.3702H56.3596C45.4382 10.3702 37.3578 9.66919 32.3029 8.34092C27.5433 6.97574 24.1119 5.795 22.2302 4.83569C20.0164 3.35982 17.5809 2.62198 14.9982 2.62198C8.94712 2.62198 5.51611 6.90185 4.77817 15.3881L0.12916 108.958C-0.276703 112.352 0.27653 114.898 1.7524 116.559C3.08068 118.035 5.11001 118.773 7.76657 118.773C12.3418 118.773 15.1458 116.19 15.9206 111.282L18.5036 94.1993C22.2302 70.032 30.3106 52.3217 42.5234 41.474C54.6993 30.6264 67.207 25.1658 79.6781 25.1658C85.9505 25.1658 90.0832 26.1249 91.965 28.0067C93.8467 29.8884 94.8056 33.1353 94.8056 37.7105V348.085C94.8056 355.059 93.6622 359.892 91.4484 362.438C89.1977 364.689 84.6593 366.349 77.981 367.345L54.7729 370.961C48.5004 371.441 47.2093 375.094 47.2093 378.082C47.2093 381.071 48.722 384.687 55.8799 384.687H172.252C179.41 384.687 180.923 381.108 180.923 378.082C180.923 375.057 179.594 371.441 173.433 370.961L150.151 367.345C143.804 366.349 139.267 364.689 136.721 362.475C134.47 359.892 133.326 355.059 133.326 348.085V37.7105C133.326 33.1722 134.285 29.8884 136.167 28.0067C138.048 26.1249 142.181 25.1658 148.454 25.1658C161.257 25.1658 173.949 30.6633 186.125 41.474C198.301 52.3217 206.234 70.032 209.628 94.1993L212.211 111.282C212.949 116.19 215.79 118.773 220.365 118.773C223.059 118.773 225.051 118.035 226.38 116.559C227.856 114.898 228.409 112.353 228.003 109.032H227.929V108.995Z" fill="#172020"/>
<path d="M1299.59 370.961L1299.7 370.887L1288.3 369.337C1281.33 368.341 1276.64 366.533 1274.46 364.061C1272.88 361.699 1271.95 357.899 1271.66 352.844V333.437C1271.58 332.256 1271.51 331.002 1271.51 329.6V10.3326C1271.51 2.73193 1267.93 1.14541 1264.91 1.14541C1261.88 1.14541 1257.71 2.87956 1251.99 6.45854C1247.57 9.18889 1241.88 11.9192 1235.06 14.6864C1228.6 17.4168 1219.78 19.8151 1208.86 21.8813C1203.51 22.8406 1202.4 26.272 1202.4 29.0023C1202.4 31.7327 1203.51 35.1641 1208.93 36.1234L1222.44 37.6732C1226.94 38.0053 1230.04 39.2596 1231.63 41.4734C1233.54 43.6872 1234.5 47.8566 1234.5 53.797V119.99C1234.5 121.982 1234.06 123.273 1233.21 123.79C1232.14 124.454 1230.19 124.085 1227.53 122.757C1222.99 120.654 1218.2 119.252 1213.36 118.551C1208.49 117.517 1203.55 116.964 1198.68 116.964C1178.57 116.964 1160.27 123.31 1144.33 135.781C1128.43 148.252 1115.77 165.778 1106.8 187.879C1097.84 209.611 1093.3 235.328 1093.3 264.255C1093.3 289.087 1096.62 311.262 1103.19 330.264C1109.76 348.933 1119.05 363.876 1130.86 374.613C1143.04 385.055 1156.98 390.368 1172.33 390.368C1183.84 390.368 1193.73 387.896 1201.78 382.989C1208.97 378.598 1216.98 370.592 1225.57 359.154C1226.35 358.416 1227.09 357.678 1227.86 356.903C1229.6 355.169 1231.07 354.615 1232.51 355.169C1233.43 355.353 1234.61 355.87 1234.73 358.489V384.649H1298.93C1304.83 384.649 1306.05 381.07 1306.05 378.045C1306.05 375.351 1304.94 371.883 1299.59 370.924V370.961ZM1183.66 364.725C1168.24 364.725 1155.84 355.685 1146.73 337.827C1137.87 319.416 1133.37 292.223 1133.37 257.024C1133.37 218.393 1139.24 187.547 1150.86 165.372C1162.7 143.05 1178.27 131.723 1197.13 131.723C1208.16 131.723 1217.13 136.113 1223.84 144.821C1230.92 153.566 1234.5 165.741 1234.5 180.98H1234.47V297.61C1234.47 310.081 1231.85 321.519 1226.79 331.629C1224.51 336.536 1221.81 340.964 1218.82 344.948C1218.68 345.133 1218.56 345.317 1218.42 345.502C1215.28 349.561 1211.78 353.103 1207.94 356.128C1200.56 361.847 1192.41 364.725 1183.66 364.725Z" fill="#172020"/>
<path d="M394.963 339.968L385.111 338.344C381.089 337.68 378.138 336.389 376.662 334.692C375.297 332.515 374.595 328.493 374.522 322.7L374.448 198.506V191.902C374.448 159.802 357.217 132.166 330.541 121.466C300.692 109.511 269.182 112.795 241.841 130.764C233.946 135.966 227.119 144.379 224.057 152.68C223.799 153.308 223.615 153.972 223.43 154.71L223.172 155.521C223.098 155.743 223.024 156.001 222.95 156.259C222.95 156.37 222.95 156.481 222.876 156.665C222.802 156.961 222.766 157.293 222.692 157.772C221.696 163.344 222.692 168.878 225.497 173.269C225.718 173.638 225.976 174.007 226.308 174.449L226.64 174.929C226.64 174.929 226.787 175.15 226.824 175.224C231.436 181.46 238.373 184.264 245.42 182.604C252.652 180.943 258.592 174.339 260.142 166.221C261.766 157.698 260.142 152.053 254.718 147.293C252.984 145.744 252.136 144.231 252.247 142.792C252.394 140.394 254.903 138.733 254.903 138.733C268.776 129.915 281.025 127.148 298.662 128.735C329.434 131.539 339.987 166.332 339.581 197.989V201.605C339.581 204.078 338.142 206.144 336.076 206.697L315.155 213.043C287.777 220.164 265.861 229.573 246.121 242.598C227.23 255.069 214.132 275.952 211.106 298.422C205.424 340.226 232.174 375.389 260.695 382.03C265.971 383.248 271.026 383.58 275.712 383.764C277.041 383.764 278.332 383.838 279.587 383.838C306.337 383.838 319.435 372.99 332.164 362.438C333.677 361.183 335.19 359.929 336.74 358.711V358.97L338.99 357.088C339.506 356.645 340.134 356.571 340.762 356.83C341.5 357.162 341.942 358.01 341.942 359.006V375.684C341.942 382.141 345.004 383.506 347.587 383.506C349.948 383.506 352.531 381.809 355.778 378.119C360.095 372.179 365.039 367.05 370.537 362.844C376.329 358.711 384.041 355.87 393.56 354.468C399.316 353.251 402.194 350.631 402.194 346.683C402.194 343.879 400.903 340.484 394.852 339.931L394.963 340.078V339.968ZM339.655 306.17V322.737C339.655 336.721 332.865 349.598 322.423 355.501C315.044 359.671 308.144 361.958 301.392 362.438C279.328 363.951 262.836 354.837 250.992 334.655C239.997 315.874 238.263 291.412 246.638 273.812C261.692 242.303 327.773 223.928 339.986 220.828L339.691 283.774C339.691 285.139 339.617 292.814 339.507 304.842V306.244H339.655V306.17Z" fill="#172020"/>
<path d="M1630.11 100.433C1619.41 72.1336 1603.99 49.885 1584.32 34.3515C1564.58 18.4121 1540.89 10.3687 1513.92 10.3687H1409.43C1402.24 10.3687 1400.76 13.9476 1400.76 16.9731C1400.76 20.5521 1403.27 22.9503 1408.25 24.0941L1420.13 26.1603C1427.14 27.4886 1431.64 29.2967 1433.64 31.5842C1435.85 33.798 1436.99 38.447 1436.99 45.4205V349.56C1436.99 360.518 1431.49 366.827 1420.17 368.82L1408.21 370.886C1403.27 372.03 1400.76 374.428 1400.76 378.007C1400.76 381.033 1402.27 384.611 1409.43 384.611H1508.76C1536.76 384.611 1561.3 376.9 1581.74 361.662C1602.14 346.46 1618.04 324.728 1629.11 297.129C1640.48 269.568 1646.23 236.545 1646.23 199.021C1646.23 161.497 1640.81 128.659 1630.15 100.433H1630.11ZM1475.51 62.4667C1475.51 37.6722 1488.06 25.6439 1513.89 25.6439C1543.37 25.6439 1565.87 40.9559 1580.82 71.1743C1596.2 101.245 1603.99 144.267 1603.99 199.021C1603.99 253.776 1595.83 296.797 1579.78 325.835C1564.18 354.688 1540.93 369.336 1510.75 369.336C1498.28 369.336 1489.13 366.643 1483.48 361.367C1478.17 355.721 1475.48 345.981 1475.48 332.513V62.5037H1475.51V62.4667Z" fill="#172020"/>
<path d="M1900.71 71.654C1908.2 71.654 1914.51 68.9606 1919.49 63.6106C1924.47 58.2975 1926.98 51.4716 1926.98 43.3174C1926.98 35.1633 1924.47 28.5219 1919.49 23.5409C1914.51 18.1909 1908.16 15.4974 1900.71 15.4974C1893.26 15.4974 1886.76 18.1909 1881.45 23.5409C1876.47 28.5219 1873.92 35.2002 1873.92 43.3174C1873.92 51.4347 1876.43 58.2606 1881.45 63.6106C1886.76 68.9237 1893.26 71.654 1900.71 71.654Z" fill="#172020"/>
<path d="M1945.87 370.886L1932.88 369.336C1927.35 368.672 1923.55 366.901 1921.67 364.06C1919.71 361.108 1918.71 356.053 1918.71 349.043V124.563C1918.71 118.66 1915.69 117.442 1913.14 117.442C1910.78 117.442 1908.05 119.066 1904.77 122.313C1898.64 127.736 1892.26 132.422 1885.76 136.186C1879.34 139.912 1870.75 142.643 1860.19 144.34C1854.22 145.447 1851.16 147.698 1851.16 150.944C1851.16 153.712 1852.48 157.069 1858.68 157.549L1869.53 159.099C1874.07 159.763 1877.17 161.202 1878.83 163.489C1880.71 165.371 1881.67 169.319 1881.67 175.259V349.043C1881.67 356.053 1880.53 361.071 1878.27 363.949C1876.02 366.532 1870.64 368.524 1862.26 369.852L1855.99 370.886C1851.04 372.029 1848.54 374.428 1848.54 378.007C1848.54 381.032 1850.05 384.611 1857.21 384.611H1943.58C1950.78 384.611 1952.25 380.737 1952.25 377.49C1952.25 375.018 1951.15 371.882 1945.8 370.886H1945.87Z" fill="#172020"/>
<path d="M2061.29 370.885L2049.37 369.335C2042.4 368.339 2037.71 366.531 2035.54 364.059C2033.58 361.107 2032.59 356.053 2032.59 349.042V9.18724C2032.59 1.58653 2029.01 6.93895e-06 2025.98 6.93895e-06C2022.96 6.93895e-06 2018.79 1.73416 2013.07 5.31313C2008.64 8.04349 2002.96 10.7737 1996.13 13.5041C1989.31 16.2344 1981.01 18.6697 1971.49 20.699C1966.17 21.6583 1965.03 25.0896 1965.03 27.82C1965.03 30.5504 1966.14 33.9817 1971.52 34.941L1983.48 36.4908C1988.02 36.8229 1991.08 38.0773 1992.66 40.2911C1994.58 42.5049 1995.54 46.6743 1995.54 52.6147V349.005C1995.54 355.942 1993.92 360.923 1990.67 363.838C1987.39 366.79 1982.15 368.819 1975.14 369.815L1967.87 370.848C1962.56 371.808 1961.41 375.239 1961.41 377.969C1961.41 380.995 1962.67 384.574 1968.53 384.574H2060.59C2066.49 384.574 2067.71 380.995 2067.71 377.969C2067.71 375.276 2066.6 371.808 2061.25 370.848L2061.29 370.885Z" fill="#172020"/>
<path d="M2264.74 118.956H2199.06C2192.31 118.956 2190.9 122.277 2190.9 125.044C2190.9 128.955 2193.41 131.538 2198.39 132.682L2209.28 134.748C2217.43 136.039 2222.05 138.954 2223.04 143.418C2224.37 147.698 2223.67 154.487 2220.98 163.564L2176.99 305.801C2176.07 308.826 2174.67 310.302 2172.72 310.302C2171.13 310.302 2169.84 308.789 2168.95 305.801L2123.42 154.229C2121.1 146.997 2120.88 142.053 2122.76 139.544C2125.01 136.666 2130.21 134.674 2138.18 133.678L2146.48 132.645C2152.68 131.685 2153.97 127.959 2153.97 125.007C2153.97 122.24 2152.57 118.919 2145.82 118.919H2060.47C2053.72 118.919 2052.32 122.24 2052.32 125.007C2052.32 128.918 2054.83 131.501 2059.77 132.645L2067.52 134.194C2072.13 135.19 2075.42 136.814 2077.41 139.102C2079.7 141.389 2082.06 146.665 2084.42 154.746L2140.8 334.248C2144.89 346.534 2147.48 357.087 2148.51 365.647C2149.88 374.133 2150.06 382.214 2149.03 389.74C2148.36 397.23 2146.26 406.196 2142.87 416.454C2137.4 433.537 2133.09 444.79 2130.03 449.919C2127.11 455.084 2123.9 457.741 2120.47 457.741C2117.74 457.741 2116 456.745 2115.12 454.678C2114.09 452.317 2113.05 449.55 2112.06 446.488C2110.99 443.241 2109.18 440.363 2106.67 437.854C2104.09 435.271 2099.88 433.943 2094.12 433.943C2087.34 433.943 2081.87 436.304 2077.89 440.99C2073.98 445.639 2071.99 451.395 2071.99 458.147C2071.99 466.633 2074.87 474.123 2080.47 480.469C2086.16 487.221 2093.87 490.616 2103.42 490.616C2110.8 490.616 2117.44 488.66 2123.05 484.786C2128.7 481.281 2134.53 473.496 2140.43 461.689C2146.63 449.956 2153.6 431.803 2161.2 407.746L2238.28 167.254C2242.01 156.369 2245.62 148.621 2249.02 144.23C2252.34 139.913 2256.54 136.888 2261.52 135.227L2266.17 133.678C2270.71 132.165 2273 129.434 2273 125.56C2273 122.535 2271.6 118.956 2264.85 118.956H2264.74Z" fill="#172020"/>
<path d="M1845 339.968L1835.15 338.344C1831.13 337.68 1828.18 336.389 1826.7 334.692C1825.34 332.515 1824.64 328.493 1824.56 322.7L1824.49 198.506V191.902C1824.49 159.802 1807.26 132.166 1780.58 121.466C1750.73 109.511 1719.26 112.795 1691.88 130.764C1683.99 135.966 1677.16 144.379 1674.1 152.68C1673.84 153.308 1673.65 153.972 1673.47 154.71L1673.21 155.521C1673.14 155.743 1673.06 156.001 1672.99 156.259C1672.99 156.37 1672.99 156.481 1672.92 156.665C1672.84 156.961 1672.81 157.293 1672.73 157.772C1671.74 163.344 1672.73 168.878 1675.54 173.269C1675.76 173.638 1676.02 174.007 1676.35 174.449L1676.68 174.929C1676.68 174.929 1676.83 175.15 1676.86 175.224C1681.48 181.46 1688.41 184.264 1695.46 182.604C1702.69 180.943 1708.63 174.339 1710.18 166.221C1711.81 157.698 1710.18 152.053 1704.76 147.293C1703.02 145.744 1702.18 144.231 1702.29 142.792C1702.43 140.394 1704.94 138.733 1704.94 138.733C1718.82 129.915 1731.07 127.148 1748.7 128.735C1779.47 131.539 1790.03 166.332 1789.62 197.989V201.605C1789.62 204.078 1788.18 206.144 1786.12 206.697L1765.19 213.043C1737.82 220.164 1715.9 229.573 1696.16 242.598C1677.27 255.069 1664.17 275.952 1661.15 298.422C1655.46 340.226 1682.21 375.389 1710.77 382.03C1716.05 383.248 1721.1 383.58 1725.79 383.764C1727.12 383.764 1728.41 383.838 1729.66 383.838C1756.41 383.838 1769.51 372.99 1782.24 362.438C1783.75 361.183 1785.27 359.929 1786.82 358.711V358.97L1789.07 357.088C1789.58 356.645 1790.21 356.571 1790.84 356.83C1791.58 357.162 1792.02 358.01 1792.02 359.006V375.684C1792.02 382.141 1795.08 383.506 1797.66 383.506C1800.03 383.506 1802.61 381.809 1805.86 378.119C1810.17 372.179 1815.12 367.05 1820.61 362.844C1826.41 358.711 1834.12 355.87 1843.64 354.468C1849.39 353.251 1852.27 350.631 1852.27 346.683C1852.27 343.879 1850.98 340.484 1844.97 339.931L1845.08 340.078L1845 339.968ZM1789.69 306.17V322.737C1789.69 336.721 1782.94 349.598 1772.46 355.501C1765.08 359.671 1758.18 361.958 1751.43 362.438C1729.37 363.951 1712.88 354.837 1701.03 334.655C1690.04 315.874 1688.3 291.412 1696.68 273.812C1711.73 242.303 1777.81 223.928 1790.03 220.828L1789.73 283.774C1789.73 285.139 1789.66 292.814 1789.55 304.842V306.244H1789.69V306.17Z" fill="#172020"/>
<path d="M1076.84 370.957L1076.95 370.884L1065.55 369.334C1058.58 368.338 1053.89 366.53 1051.72 364.058C1049.8 361.18 1048.84 356.236 1048.76 349.483V324.468C1048.76 324.283 1048.76 324.099 1048.76 323.914V290.449V123.123C1048.76 117.44 1045.78 114.452 1040.09 114.452H991.981C983.089 114.452 981.244 118.621 981.244 122.089C981.244 126.406 984.491 128.989 990.837 129.727L999.655 130.76C1004.16 131.092 1007.26 132.347 1008.84 134.56C1010.76 136.774 1011.72 140.944 1011.72 146.884V293.253C1011.72 305.134 1009.14 316.313 1004.05 326.46C999.286 336.274 992.792 344.355 984.675 350.406C976.594 356.125 967.223 359.04 956.745 359.04C946.266 359.04 938.074 355.83 932.097 349.52C926.415 342.805 923.538 331.552 923.538 315.981V123.049C923.538 117.367 920.549 114.378 914.867 114.378H866.753C857.861 114.378 856.017 118.547 856.017 122.016C856.017 126.333 859.264 128.915 865.61 129.653L874.428 130.686C878.966 131.018 882.029 132.273 883.615 134.487C885.534 136.701 886.493 140.87 886.493 146.81V326.829C886.493 340.739 889.149 352.029 894.389 360.405C899.628 368.78 906.381 375.016 914.424 378.853C922.431 382.691 930.917 384.646 939.661 384.646C951.837 384.646 962.943 381.989 972.683 376.787C982.719 371.585 994.268 362.471 1007.03 349.705C1008.84 347.897 1010.39 347.307 1011.9 347.897C1012.68 348.045 1013.68 348.45 1014.05 350.074V384.72H1076.18C1082.08 384.72 1083.3 381.141 1083.3 378.115C1083.3 375.422 1082.19 371.954 1076.84 370.994V370.957Z" fill="#172020"/>
</g>
<defs>
<clipPath id="clip0_79424_401">
<rect width="2273" height="491" fill="white"/>
</clipPath>
</defs>
</svg>
